<svg xmlns="http://www.w3.org/2000/svg" width="74" height="59" viewBox="0 0 74 59" fill="none"><g clip-path="url(#clip0_809_870)"><path d="M15.4554 0C11.2392 0 8.11931 3.69028 8.25902 7.69229C8.39323 11.537 8.2189 16.5169 6.96533 20.5778C5.70801 24.6505 3.5813 27.2304 0.107788 27.5618V31.3014C3.5813 31.6328 5.70801 34.2126 6.96533 38.2857C8.2189 42.3466 8.39323 47.3259 8.25902 51.1709C8.11931 55.1723 11.2392 58.8632 15.456 58.8632H58.6578C62.8743 58.8632 65.9933 55.1729 65.8536 51.1709C65.7197 47.3262 65.8937 42.3466 67.1473 38.2857C68.4055 34.2129 70.5264 31.6325 73.9999 31.3014V27.5618C70.5264 27.2304 68.4055 24.6505 67.1476 20.5778C65.8937 16.5175 65.7197 11.5373 65.8536 7.69229C65.9933 3.69086 62.8743 0 58.6578 0H15.4548H15.4554V0ZM50.2044 36.234C50.2044 41.7447 46.0941 45.0866 39.2729 45.0866H27.6609C27.3288 45.0866 27.0103 44.9546 26.7755 44.7197C26.5407 44.4848 26.4088 44.1663 26.4088 43.8342V15.029C26.4087 14.8645 26.4411 14.7016 26.504 14.5496C26.567 14.3976 26.6592 14.2595 26.7755 14.1432C26.8918 14.0269 27.0299 13.9346 27.1818 13.8716C27.3338 13.8087 27.4967 13.7763 27.6612 13.7763H39.2066C44.8942 13.7763 48.6269 16.8575 48.6269 21.5878C48.6269 24.908 46.1158 27.8804 42.9167 28.4009V28.5743C47.2721 29.052 50.2044 32.068 50.2044 36.234V36.234ZM38.0064 17.7465H31.3858V27.0985H36.9624C41.2729 27.0985 43.6502 25.3626 43.6502 22.2597C43.6502 19.3522 41.606 17.7465 38.0067 17.7465H38.0064ZM31.3858 30.8093V41.1152H38.2503C42.7381 41.1152 45.1159 39.3144 45.1159 35.9298C45.1159 32.5446 42.672 30.8087 37.9616 30.8087H31.3858V30.8093Z" fill="#7E13F8"></path></g><defs><clipPath id="clip0_809_870"><rect width="73.8922" height="58.8828" fill="white" transform="translate(0.107788)"></rect></clipPath></defs></svg>