<svg xmlns="http://www.w3.org/2000/svg" width="2500" height="2501" viewBox="0 0 2500 2501" fill="none"><path d="M16.2695 1453.05V1174.82H363.652V1158.55H16.2695V904.723H385.615V888.453H0V1469.32H388.867V1453.05H16.2744H16.2695ZM702.085 1051.16L558.091 1240.71L417.344 1051.16H396.191L548.325 1252.92L381.543 1469.31H401.069L558.081 1265.11L715.908 1469.31H736.245L568.657 1252.91L721.602 1051.15H702.08L702.085 1051.16ZM785.064 1612.5V1352.17H786.689C796.455 1390.14 815.708 1420.65 844.453 1443.7C873.198 1466.74 909.805 1478.27 954.277 1478.27C983.022 1478.27 1008.52 1472.44 1030.75 1460.78C1052.99 1449.12 1071.56 1433.26 1086.48 1413.19C1101.39 1393.12 1112.78 1369.8 1120.65 1343.22C1128.51 1316.65 1132.45 1288.72 1132.45 1259.43C1132.45 1227.97 1128.37 1198.96 1120.24 1172.38C1112.1 1145.81 1100.31 1122.75 1084.85 1103.23C1069.39 1083.71 1050.68 1068.52 1028.72 1057.68C1006.75 1046.83 981.938 1041.4 954.277 1041.4C933.125 1041.4 913.467 1044.52 895.298 1050.76C877.129 1057 860.996 1065.81 846.895 1077.2C832.71 1088.68 820.364 1102.26 810.283 1117.47C799.98 1132.93 792.114 1149.87 786.689 1168.32H785.064V1051.16H768.794V1612.5H785.064V1612.5ZM954.277 1462.81C903.301 1462.81 862.349 1445.32 831.436 1410.34C800.522 1375.36 785.064 1325.05 785.064 1259.42C785.064 1232.31 788.862 1206.54 796.455 1182.14C804.048 1157.74 815.029 1136.31 829.399 1117.87C843.774 1099.43 861.538 1084.79 882.686 1073.94C903.838 1063.09 927.705 1057.67 954.277 1057.67C981.397 1057.67 1005.13 1063.09 1025.46 1073.94C1045.8 1084.79 1062.62 1099.57 1075.9 1118.28C1089.19 1136.99 1099.22 1158.41 1106.01 1182.54C1112.78 1206.68 1116.17 1232.31 1116.17 1259.42C1116.17 1283.83 1113.06 1308.11 1106.82 1332.24C1100.58 1356.37 1090.95 1378.07 1077.93 1397.33C1064.92 1416.57 1048.25 1432.3 1027.91 1444.51C1007.56 1456.71 983.022 1462.81 954.277 1462.81V1462.81ZM1221.93 1469.32V1232.58C1221.93 1209.8 1225.19 1187.56 1231.7 1165.87C1238.2 1144.18 1248.24 1125.05 1261.8 1108.52C1275.36 1091.97 1292.57 1078.96 1313.46 1069.46C1334.34 1059.97 1359.15 1056.04 1387.9 1057.67V1041.4C1362.94 1040.86 1341.12 1043.57 1322.41 1049.53C1303.69 1055.5 1287.56 1063.63 1274 1073.94C1260.44 1084.24 1249.59 1096.31 1241.46 1110.14C1233.33 1123.95 1227.3 1138.9 1223.56 1154.48H1221.93V1051.16H1205.66V1469.32H1221.93V1469.32ZM1408.23 1263.49H1758.05C1759.14 1234.75 1756.29 1207.09 1749.51 1180.51C1742.73 1153.94 1731.88 1130.34 1716.97 1109.74C1702.06 1089.13 1682.8 1072.58 1659.21 1060.11C1635.62 1047.63 1607.55 1041.4 1575.01 1041.4C1551.68 1041.4 1528.91 1046.28 1506.67 1056.05C1484.43 1065.81 1464.91 1080.04 1448.1 1098.75C1431.28 1117.46 1417.72 1140.38 1407.42 1167.5C1397.12 1194.62 1391.96 1225.53 1391.96 1260.24C1391.96 1291.15 1395.49 1320.04 1402.54 1346.88C1409.59 1373.73 1420.43 1397.05 1435.08 1416.85C1449.73 1436.64 1468.57 1451.96 1491.62 1462.81C1514.67 1473.66 1542.47 1478.81 1575.01 1478.27C1622.73 1478.27 1662.87 1464.84 1695.41 1438C1727.95 1411.15 1747.21 1373.32 1753.17 1324.51H1736.9C1729.85 1370.61 1711.82 1405.19 1682.8 1428.23C1653.78 1451.29 1617.31 1462.81 1573.38 1462.81C1543.55 1462.81 1518.33 1457.66 1497.72 1447.35C1477.11 1437.05 1460.3 1422.95 1447.28 1405.05C1434.27 1387.15 1424.64 1366.13 1418.4 1342C1412.16 1317.87 1408.77 1291.7 1408.23 1263.49ZM1741.78 1247.22H1408.24C1409.86 1217.94 1415.28 1191.63 1424.5 1168.31C1433.73 1144.99 1445.79 1125.05 1460.71 1108.52C1475.62 1091.97 1492.98 1079.37 1512.77 1070.68C1532.57 1062.01 1553.86 1057.67 1576.64 1057.67C1603.75 1057.67 1627.61 1062.69 1648.23 1072.72C1668.83 1082.75 1686.05 1096.45 1699.89 1113.8C1713.72 1131.16 1724.16 1151.36 1731.21 1174.41C1738.26 1197.46 1741.78 1221.73 1741.78 1247.22ZM2095.67 1174.82H2111.94C2111.94 1128.17 2098.38 1094.28 2071.27 1073.13C2044.15 1051.97 2007.27 1041.4 1960.63 1041.4C1934.59 1041.4 1912.63 1044.65 1894.73 1051.16C1876.83 1057.67 1862.19 1066.08 1850.8 1076.38C1839.41 1086.68 1831.27 1098.07 1826.39 1110.55C1821.51 1123.02 1819.07 1134.96 1819.07 1146.34C1819.07 1169.12 1823.13 1187.29 1831.27 1200.85C1839.41 1214.41 1852.15 1224.99 1869.51 1232.58C1881.44 1238 1895 1242.88 1910.19 1247.23C1925.37 1251.56 1943 1256.17 1963.07 1261.05C1980.96 1265.4 1998.59 1269.73 2015.95 1274.07C2033.3 1278.41 2048.62 1284.24 2061.91 1291.56C2075.2 1298.88 2086.04 1308.24 2094.45 1319.63C2102.86 1331.02 2107.06 1345.93 2107.06 1364.37C2107.06 1382.27 2102.86 1397.46 2094.45 1409.93C2086.12 1422.34 2075.14 1432.76 2062.32 1440.44C2049.3 1448.3 2034.79 1454 2018.79 1457.52C2002.79 1461.05 1987.2 1462.81 1972.02 1462.81C1922.66 1462.81 1884.83 1451.83 1858.53 1429.86C1832.22 1407.9 1819.07 1373.32 1819.07 1326.13H1802.8C1802.8 1378.75 1817.04 1417.25 1845.51 1441.66C1873.98 1466.07 1916.15 1478.27 1972.02 1478.27C1989.91 1478.27 2007.94 1476.23 2026.12 1472.16C2044.28 1468.1 2060.56 1461.46 2074.93 1452.23C2089.17 1443.14 2101.14 1430.89 2109.91 1416.44C2118.86 1401.79 2123.34 1383.9 2123.34 1362.75C2123.34 1342.68 2119.4 1326.41 2111.54 1313.93C2103.67 1301.46 2093.37 1291.15 2080.62 1283.02C2067.88 1274.88 2053.51 1268.51 2037.5 1263.9C2021.41 1259.27 2005.28 1254.79 1989.1 1250.47C1969.18 1245.25 1949.25 1240.1 1929.3 1235.02C1912.22 1230.68 1896.36 1225.53 1881.71 1219.56C1867.61 1213.59 1856.36 1205.05 1847.95 1193.94C1839.54 1182.82 1835.34 1166.95 1835.34 1146.34C1835.34 1142.55 1836.43 1135.77 1838.59 1126.01C1840.76 1116.24 1845.92 1106.34 1854.05 1096.31C1862.19 1086.28 1874.66 1077.33 1891.47 1069.46C1908.29 1061.6 1931.34 1057.67 1960.63 1057.67C1980.69 1057.67 1998.99 1059.84 2015.54 1064.18C2032.08 1068.52 2046.32 1075.43 2058.25 1084.92C2070.18 1094.42 2079.4 1106.48 2085.91 1121.12C2092.42 1135.77 2095.67 1153.67 2095.67 1174.82V1174.82ZM2472.34 1174.82H2488.61C2488.61 1128.17 2475.05 1094.28 2447.93 1073.13C2420.82 1051.97 2383.94 1041.4 2337.29 1041.4C2311.26 1041.4 2289.29 1044.65 2271.4 1051.16C2253.5 1057.67 2238.85 1066.08 2227.47 1076.38C2216.07 1086.68 2207.94 1098.07 2203.06 1110.55C2198.17 1123.02 2195.74 1134.96 2195.74 1146.34C2195.74 1169.12 2199.8 1187.29 2207.94 1200.85C2216.07 1214.41 2228.82 1224.99 2246.18 1232.58C2258.11 1238 2271.66 1242.88 2286.85 1247.23C2302.04 1251.56 2319.66 1256.17 2339.73 1261.05C2357.63 1265.4 2375.26 1269.73 2392.61 1274.07C2409.97 1278.41 2425.29 1284.24 2438.58 1291.56C2451.87 1298.88 2462.71 1308.24 2471.12 1319.63C2479.53 1331.02 2483.73 1345.93 2483.73 1364.37C2483.73 1382.27 2479.53 1397.46 2471.12 1409.93C2462.78 1422.34 2451.81 1432.76 2438.99 1440.44C2425.97 1448.3 2411.46 1454 2395.46 1457.52C2379.46 1461.05 2363.87 1462.81 2348.68 1462.81C2299.33 1462.81 2261.5 1451.83 2235.2 1429.86C2208.89 1407.9 2195.74 1373.32 2195.74 1326.13H2179.47C2179.47 1378.75 2193.7 1417.25 2222.18 1441.66C2250.65 1466.07 2292.82 1478.27 2348.68 1478.27C2366.58 1478.27 2384.61 1476.23 2402.78 1472.16C2420.95 1468.1 2437.22 1461.46 2451.6 1452.23C2465.84 1443.14 2477.81 1430.89 2486.58 1416.44C2495.53 1401.79 2500 1383.9 2500 1362.75C2500 1342.68 2496.07 1326.41 2488.2 1313.93C2480.34 1301.46 2470.04 1291.15 2457.29 1283.02C2444.55 1274.88 2430.17 1268.51 2414.17 1263.9C2398.08 1259.27 2381.95 1254.79 2365.77 1250.47C2345.85 1245.25 2325.92 1240.1 2305.97 1235.02C2288.89 1230.68 2273.02 1225.53 2258.38 1219.56C2244.28 1213.59 2233.02 1205.05 2224.62 1193.94C2216.21 1182.82 2212.01 1166.95 2212.01 1146.34C2212.01 1142.55 2213.09 1135.77 2215.26 1126.01C2217.43 1116.24 2222.59 1106.34 2230.72 1096.31C2238.85 1086.28 2251.33 1077.33 2268.14 1069.46C2284.96 1061.6 2308 1057.67 2337.29 1057.67C2357.36 1057.67 2375.66 1059.84 2392.21 1064.18C2408.75 1068.52 2422.98 1075.43 2434.92 1084.92C2446.85 1094.42 2456.07 1106.48 2462.58 1121.12C2469.09 1135.77 2472.34 1153.67 2472.34 1174.82H2472.34Z" fill="#222222"></path></svg>