<svg xmlns="http://www.w3.org/2000/svg" width="40" height="59" viewBox="0 0 40 59" fill="none"><g clip-path="url(#clip0_809_831)"><path d="M10.182 58.8771C15.5982 58.8771 19.9939 54.4814 19.9939 49.0652V39.2533H10.182C4.76585 39.2533 0.370117 43.649 0.370117 49.0652C0.370117 54.4814 4.76585 58.8771 10.182 58.8771Z" fill="#0ACF83"></path><path d="M0.370117 29.4414C0.370117 24.0253 4.76585 19.6295 10.182 19.6295H19.9939V39.2533H10.182C4.76585 39.2533 0.370117 34.8576 0.370117 29.4414Z" fill="#A259FF"></path><path d="M0.370117 9.81764C0.370117 4.40147 4.76585 0.0057373 10.182 0.0057373H19.9939V19.6295H10.182C4.76585 19.6295 0.370117 15.2338 0.370117 9.81764Z" fill="#F24E1E"></path><path d="M19.9939 0.0057373H29.8058C35.222 0.0057373 39.6177 4.40147 39.6177 9.81764C39.6177 15.2338 35.222 19.6295 29.8058 19.6295H19.9939V0.0057373Z" fill="#FF7262"></path><path d="M39.6177 29.4414C39.6177 34.8576 35.222 39.2533 29.8058 39.2533C24.3896 39.2533 19.9939 34.8576 19.9939 29.4414C19.9939 24.0253 24.3896 19.6295 29.8058 19.6295C35.222 19.6295 39.6177 24.0253 39.6177 29.4414Z" fill="#1ABCFE"></path></g><defs><clipPath id="clip0_809_831"><rect width="39.2476" height="58.8714" fill="white" transform="translate(0.370117 0.0057373)"></rect></clipPath></defs></svg>