<svg xmlns="http://www.w3.org/2000/svg" fill="#000000" viewBox="0 0 50 50" width="250px" height="250px"><path d="M25,2C12.297,2,2,12.297,2,25s10.297,23,23,23s23-10.297,23-23S37.703,2,25,2z M33.406,29.365 c-1.04,2.471-2.968,4.734-6.536,4.734c0,0-1.513-10.543-1.536-10.785c-0.093,0.254-2.229,5.797-2.229,5.797 c-1.005,2.563-2.922,4.976-6.49,4.988l-2.794-17.044c2.321,0,5.185,1.905,5.393,5.046c0,0,0.358,6.247,0.37,6.744 c0.196-0.531,2.621-6.813,2.621-6.813c0.959-2.575,2.772-4.988,6.178-4.988c0,0,1.455,11.247,1.513,11.778 c0.15-0.531,2.148-6.79,2.148-6.79c0.958-2.575,2.817-4.988,6.35-4.988L33.406,29.365z"></path></svg>