<svg xmlns="http://www.w3.org/2000/svg" width="2500" height="2500" viewBox="0 0 2500 2500" fill="none"><path fill-rule="evenodd" clip-rule="evenodd" d="M2390.09 1008.96L2494.61 1009.54C2494.61 1009.54 2300.29 1272.85 2284.43 1294.31C2279.27 1301.26 2271.45 1308.75 2267.48 1318.04C2257.44 1341.39 2247.13 1392.62 2247.13 1392.62L2151.5 1393.1C2151.5 1393.1 2166.39 1339.7 2165.77 1311.26C2165.23 1286.41 2152.55 1261.6 2145.43 1236.68C2138.24 1211.45 2128.48 1162.09 2128.48 1162.09H2226.8L2240.36 1216.34L2390.09 1008.96" fill="#1A1918"></path><path fill-rule="evenodd" clip-rule="evenodd" d="M2192.18 1064.5C2211.47 1076.12 2223.31 1140.27 2223.31 1140.27C2223.31 1140.27 2122.38 1141.76 2067.46 1141.76H2020L1962.37 1392.62H1874.23C1874.23 1392.62 1929.08 1119.99 1942.03 1070.57C1946.23 1054.56 1970.78 1057.31 2012.24 1057.31H2078.45C2121.2 1057.31 2171.17 1051.85 2192.18 1064.5V1064.5ZM1781.85 1186.67C1781.85 1186.67 1784.59 1170.57 1772.53 1151.92C1762.22 1136.03 1752.7 1132.33 1725.57 1131.48C1648.99 1129.07 1650.48 1185.83 1650.48 1185.83L1781.85 1186.67ZM1864.9 1121.68C1876.13 1162.17 1854.73 1257.29 1854.73 1257.29C1854.73 1257.29 1743.03 1255.42 1681.84 1257.29C1662.82 1257.87 1640.05 1255.22 1634.38 1264.07C1626.41 1276.47 1637.29 1295.57 1646.52 1303.63C1657.13 1312.92 1677.8 1313.98 1685.23 1314.92C1734.89 1321.23 1838.83 1316.55 1838.83 1316.55L1820.83 1396.27C1820.83 1396.27 1673.95 1403.64 1600.48 1386.11C1585.97 1382.65 1572.37 1375.67 1563.19 1365.77C1560.68 1363.06 1558.5 1359.37 1556.13 1356.18C1554.24 1353.63 1548.71 1345.26 1546.24 1338.65C1529.46 1293.93 1548.2 1208.27 1566.58 1162.37C1568.71 1157.05 1571.39 1150.3 1574.21 1144.57C1577.73 1137.42 1580.71 1129.35 1583.53 1125.07C1585.42 1122.13 1587.77 1120.23 1589.73 1117.45C1592 1114.16 1594.64 1110.97 1597.09 1108.13C1603.87 1100.26 1611.56 1094.7 1620.82 1087.79C1651.43 1064.87 1706.82 1047.07 1773.37 1053.88C1798.43 1056.46 1836.27 1065.41 1854.73 1091.18C1859.68 1098.06 1862.13 1111.72 1864.9 1121.69V1121.68ZM1460.64 1057L1546.1 1056.49C1546.1 1056.49 1498.47 1282.44 1474.2 1392.62H1375.88C1307.17 1392.62 1245.98 1401.13 1219.94 1351.94C1194.69 1304.17 1218.79 1225.63 1230.11 1172.26C1238.11 1134.49 1254.97 1057.3 1254.97 1057.3L1343.51 1056.49C1343.51 1056.49 1318.49 1176.67 1308.08 1236.68C1304.35 1258.17 1296.66 1278.41 1304.7 1294.3C1312.32 1309.43 1323 1310.51 1355.54 1311.26C1365.85 1311.5 1399.62 1311.26 1399.62 1311.26L1460.64 1057V1057ZM1060.61 1219.72C1069.56 1187.93 1082.61 1153.45 1080.95 1124.8C1079.15 1094.16 1053.46 1066.26 1036.88 1060.39C986.945 1042.76 940.196 1067.41 921.615 1087.51C897.58 1113.55 889.441 1143.96 880.932 1185.83C874.598 1216.91 869.407 1249.72 880.932 1273.97C901.337 1316.82 964.973 1307.46 1033.49 1307.87C1043.66 1280.62 1052.06 1250 1060.61 1219.72ZM1179.26 1094.29C1189.02 1165.28 1151.57 1243.63 1125.77 1311.77C1152.08 1314.14 1175.13 1311.4 1176.79 1313.36C1178.52 1315.9 1159.15 1394.69 1152.41 1394.89C1131.53 1395.44 1062.34 1396.01 1033.49 1396.01C939.342 1396.01 851.27 1402.14 806.356 1355.33C788.118 1336.31 775.505 1303.69 772.45 1280.75C767.366 1242.44 773.738 1200.26 782.623 1165.49C790.66 1134.09 800.96 1104.46 816.525 1077.34C856.086 1008.29 924.904 957.03 1040.27 968.862C1062.64 971.165 1094.78 980.963 1114.85 992.59C1116.24 993.405 1121.09 997.269 1122.2 997.947C1149.33 1015.21 1174.04 1056.39 1179.26 1094.29V1094.29ZM762.721 1057.41C757.027 1083.34 751.332 1112.74 745.331 1138.36H650.409C657.762 1109.96 663.393 1081.72 670.751 1057C701.124 1057 729.366 1057.41 762.726 1057.41H762.721ZM647.018 1162.1H738.554C726.585 1228.34 702.886 1335.19 684.31 1409.57C672.683 1456.12 664.92 1490.08 633.458 1514.66C630.643 1516.87 629.018 1515.82 626.676 1518.05C620.879 1523.58 594.062 1529.99 579.22 1531.61C555.082 1534.23 527.792 1531.95 498.125 1531.34C505.888 1502.97 514.671 1468.9 521.59 1443.47C593.901 1452.22 595.731 1383.87 609.73 1318.04C617.83 1280 642.377 1177.35 647.018 1162.1" fill="#1A1918"></path><path fill-rule="evenodd" clip-rule="evenodd" d="M433.441 1334.99L431.479 1340.07C398.056 1405.16 338.826 1445.1 254.346 1446.86C214.852 1447.67 177.223 1437.54 152.641 1426.52C99.5933 1402.69 54.972 1358.48 30.6048 1311.26C-4.3506 1243.56 -10.6547 1149.38 62.0275 1079.04C63.1498 1079.04 53.2106 1094.29 54.3329 1094.29L52.3323 1100.8C-0.0421742 1264.78 161.321 1405.3 318.182 1389.23C355.879 1385.36 403.95 1364.72 433.441 1334.99Z" fill="#21609B"></path><path fill-rule="evenodd" clip-rule="evenodd" d="M338.519 1267.19C377.982 1267.46 419.203 1249.01 443.614 1223.12C422.257 1277.33 360.422 1312.17 277.503 1301.09C208.07 1291.8 141.931 1221.93 135.12 1151.92C130.138 1100.97 147.894 1070.57 177.155 1033.68C166.986 1052.97 163.185 1067.85 162.239 1077.34C151.124 1187.55 250.281 1266.61 338.519 1267.19" fill="#21609B"></path><path fill-rule="evenodd" clip-rule="evenodd" d="M439.647 1130.29C433.514 1144.37 398.193 1170.94 382.593 1174.26C320.826 1187.42 281.27 1158.13 260.547 1124.8C257.468 1119.82 251.774 1106.23 250.754 1102.77C242.718 1075.45 246.412 1034.12 270.384 1012.73C263.163 1033.07 262.109 1056.69 265.91 1072.05C268.213 1081.34 275.229 1097.55 282.25 1107.75C295.024 1126.33 303.129 1130.84 319.538 1140.71C326.93 1145.15 334.859 1148.71 338.284 1149.68C353.845 1154.27 386.697 1166.33 439.652 1130.29" fill="#21609B"></path></svg>