<svg width="1025" height="910" viewBox="0 0 1025 910" fill="none" xmlns="http://www.w3.org/2000/svg">
<g clip-path="url(#clip0_1_20)">
<path fill-rule="evenodd" clip-rule="evenodd" d="M691.436 -34.3654C870.536 -31.1949 1059.84 -34.9106 1195.07 52.5244C1337.84 144.832 1451.99 290.874 1405.45 427.283C1361.84 555.079 1128.55 567.048 991.119 650.278C880.626 717.195 831.254 839.37 691.436 859.706C533.108 882.734 363.339 841.122 246.14 758.63C126.232 674.233 91.0739 549.656 77.0713 427.283C61.3386 289.788 32.7662 132.311 163.254 34.2591C293.987 -63.9768 505.693 -37.6534 691.436 -34.3654Z" stroke="#F2994A"/>
<path fill-rule="evenodd" clip-rule="evenodd" d="M687.436 -59.3654C866.536 -56.1949 1055.84 -59.9106 1191.07 27.5244C1333.84 119.832 1447.99 265.874 1401.45 402.283C1357.84 530.079 1124.55 542.048 987.119 625.278C876.626 692.195 827.254 814.37 687.436 834.706C529.108 857.734 359.339 816.122 242.14 733.63C122.232 649.233 87.0739 524.656 73.0713 402.283C57.3386 264.788 28.7662 107.311 159.254 9.25905C289.987 -88.9768 501.693 -62.6534 687.436 -59.3654Z" stroke="#F2994A"/>
<path fill-rule="evenodd" clip-rule="evenodd" d="M698.119 -10.8436C877.176 -5.79977 1066.51 -7.53498 1200.82 81.31C1342.61 175.106 1455.23 322.334 1407.26 458.248C1362.32 585.582 1128.91 595.109 990.623 676.897C879.437 742.655 828.789 864.307 688.766 883.179C530.205 904.549 360.881 861.163 244.551 777.45C125.533 691.803 91.6798 566.866 78.9582 444.352C64.6646 306.7 37.7412 148.933 169.248 52.2517C301.001 -44.6112 512.42 -16.0745 698.119 -10.8436Z" stroke="#F2994A"/>
<path fill-rule="evenodd" clip-rule="evenodd" d="M-370.591 992.599C-212.306 1052.16 -39.3861 1110.18 12.5461 1214.62C67.3725 1324.88 53.7996 1463.54 -96.3951 1544.01C-237.107 1619.41 -456.085 1553.07 -645.62 1567.26C-798.006 1578.67 -939.43 1648.28 -1081.13 1617.73C-1241.58 1583.14 -1360.94 1499.68 -1400.61 1404.47C-1441.2 1307.07 -1373.76 1208.71 -1289.08 1118.66C-1193.94 1017.49 -1094.44 898.229 -899.358 871.455C-703.909 844.63 -534.748 930.824 -370.591 992.599Z" stroke="#F2994A"/>
<path fill-rule="evenodd" clip-rule="evenodd" d="M-354.889 974.163C-196.601 1033.73 -23.6848 1091.75 28.3411 1196.1C83.2665 1306.27 69.8503 1444.8 -80.1981 1525.14C-220.773 1600.41 -439.738 1534.07 -629.184 1548.18C-781.498 1559.52 -922.791 1629.02 -1064.47 1598.45C-1224.9 1563.83 -1344.3 1480.42 -1384.06 1385.29C-1424.74 1287.96 -1357.43 1189.72 -1272.88 1099.79C-1177.89 998.744 -1078.56 879.636 -883.583 852.954C-688.239 826.221 -519.05 912.391 -354.889 974.163Z" stroke="#F2994A"/>
<path fill-rule="evenodd" clip-rule="evenodd" d="M-383.656 1011.53C-226.848 1072.41 -55.4291 1131.84 -5.33516 1236.91C47.5506 1347.84 31.8122 1486.74 -119.165 1566.31C-260.61 1640.85 -477.8 1572.74 -666.93 1585.57C-818.99 1595.89 -961.053 1664.63 -1101.79 1632.97C-1261.16 1597.11 -1378.79 1512.57 -1416.81 1416.84C-1455.71 1318.9 -1386.93 1220.79 -1301.09 1131.15C-1204.65 1030.43 -1103.59 911.612 -908.729 886.206C-713.504 860.753 -546.281 948.401 -383.656 1011.53Z" stroke="#F2994A"/>
</g>
<defs>
<clipPath id="clip0_1_20">
<rect width="1025" height="910" fill="white"/>
</clipPath>
</defs>
</svg>
