<svg width="995" height="934" viewBox="0 0 995 934" fill="none" xmlns="http://www.w3.org/2000/svg">
<g clip-path="url(#clip0_1_27)">
<path fill-rule="evenodd" clip-rule="evenodd" d="M1586.44 -836.365C1765.54 -833.195 1954.84 -836.911 2090.07 -749.476C2232.84 -657.168 2346.99 -511.126 2300.45 -374.717C2256.84 -246.921 2023.55 -234.952 1886.12 -151.722C1775.63 -84.8051 1726.25 37.3703 1586.44 57.7059C1428.11 80.7338 1258.34 39.1217 1141.14 -43.3697C1021.23 -127.767 986.074 -252.344 972.071 -374.717C956.339 -512.212 927.766 -669.689 1058.25 -767.741C1188.99 -865.977 1400.69 -839.653 1586.44 -836.365Z" stroke="#F2994A"/>
<path fill-rule="evenodd" clip-rule="evenodd" d="M1582.44 -861.365C1761.54 -858.195 1950.84 -861.911 2086.07 -774.476C2228.84 -682.168 2342.99 -536.126 2296.45 -399.717C2252.84 -271.921 2019.55 -259.952 1882.12 -176.722C1771.63 -109.805 1722.25 12.3703 1582.44 32.7059C1424.11 55.7338 1254.34 14.1217 1137.14 -68.3697C1017.23 -152.767 982.074 -277.344 968.071 -399.717C952.339 -537.212 923.766 -694.689 1054.25 -792.741C1184.99 -890.977 1396.69 -864.653 1582.44 -861.365Z" stroke="#F2994A"/>
<path fill-rule="evenodd" clip-rule="evenodd" d="M1593.12 -812.844C1772.18 -807.8 1961.51 -809.535 2095.82 -720.69C2237.61 -626.894 2350.23 -479.666 2302.26 -343.752C2257.32 -216.418 2023.91 -206.891 1885.62 -125.103C1774.44 -59.3453 1723.79 62.3069 1583.77 81.1788C1425.21 102.549 1255.88 59.1633 1139.55 -24.5496C1020.53 -110.197 986.68 -235.134 973.958 -357.648C959.665 -495.3 932.741 -653.067 1064.25 -749.748C1196 -846.611 1407.42 -818.075 1593.12 -812.844Z" stroke="#F2994A"/>
<path fill-rule="evenodd" clip-rule="evenodd" d="M524.409 190.599C682.694 250.165 855.614 308.183 907.546 412.619C962.372 522.876 948.8 661.54 798.605 742.013C657.893 817.406 438.915 751.072 249.38 765.261C96.9939 776.669 -44.4302 846.284 -186.127 815.733C-346.583 781.136 -465.94 697.68 -505.611 602.474C-546.198 505.068 -478.762 406.707 -394.081 316.66C-298.937 215.486 -199.441 96.2292 -4.35821 69.4546C191.091 42.6297 360.252 128.824 524.409 190.599Z" stroke="#F2994A"/>
<path fill-rule="evenodd" clip-rule="evenodd" d="M540.111 172.163C698.399 231.725 871.315 289.747 923.341 394.101C978.267 504.271 964.85 642.796 814.802 723.141C674.227 798.413 455.262 732.068 265.816 746.178C113.502 757.523 -27.7913 827.024 -169.466 796.453C-329.898 761.834 -449.3 678.418 -489.059 583.29C-529.736 485.964 -462.433 387.72 -377.884 297.788C-282.887 196.744 -183.56 77.6357 11.4172 50.9536C206.761 24.2214 375.95 110.391 540.111 172.163Z" stroke="#F2994A"/>
<path fill-rule="evenodd" clip-rule="evenodd" d="M511.344 209.533C668.152 270.407 839.571 329.838 889.665 434.911C942.551 545.839 926.812 684.741 775.835 764.306C634.39 838.848 417.2 770.742 228.07 783.573C76.0098 793.888 -66.0529 862.634 -206.79 830.966C-366.16 795.106 -483.789 710.569 -521.809 614.84C-560.708 516.898 -491.928 418.793 -406.094 329.149C-309.654 228.428 -208.588 109.612 -13.7289 84.2065C181.496 58.753 348.719 146.401 511.344 209.533Z" stroke="#F2994A"/>
</g>
<defs>
<clipPath id="clip0_1_27">
<rect width="995" height="934" fill="white"/>
</clipPath>
</defs>
</svg>
