<svg xmlns="http://www.w3.org/2000/svg" width="2500" height="2501" viewBox="0 0 2500 2501" fill="none"><path d="M1236.45 2014.77C1227.99 2014.77 1220.09 2012.51 1212.76 2008.56L1137.71 1963.99C1126.42 1957.78 1132.07 1955.52 1135.46 1954.39C1150.69 1949.32 1153.51 1948.18 1169.31 1939.16C1171 1938.03 1173.26 1938.59 1174.95 1939.72L1232.51 1974.14C1234.76 1975.27 1237.59 1975.27 1239.28 1974.14L1464.42 1843.8C1466.67 1842.67 1467.81 1840.41 1467.81 1837.59V1577.47C1467.81 1574.64 1466.67 1572.39 1464.42 1571.26L1239.28 1441.48C1237.02 1440.35 1234.2 1440.35 1232.51 1441.48L1007.37 1571.26C1005.11 1572.39 1003.98 1575.21 1003.98 1577.47V1837.59C1003.98 1839.85 1005.11 1842.66 1007.37 1843.8L1068.87 1879.34C1102.17 1896.27 1123.04 1876.52 1123.04 1856.77V1600.04C1123.04 1596.65 1125.86 1593.26 1129.81 1593.26H1158.59C1161.98 1593.26 1165.36 1596.09 1165.36 1600.04V1856.77C1165.36 1901.35 1141.1 1927.31 1098.78 1927.31C1085.8 1927.31 1075.65 1927.31 1046.86 1913.2L987.62 1879.34C972.949 1870.88 963.922 1855.08 963.922 1838.15V1578.03C963.922 1561.11 972.949 1545.3 987.62 1536.84L1212.76 1406.5C1226.87 1398.6 1246.05 1398.6 1260.16 1406.5L1485.29 1536.84C1499.96 1545.3 1509 1561.11 1509 1578.03V1838.15C1509 1855.08 1499.96 1870.88 1485.29 1879.34L1260.16 2009.69C1252.82 2013.08 1244.36 2014.77 1236.46 2014.77H1236.45ZM1305.86 1835.9C1207.12 1835.9 1186.8 1790.76 1186.8 1752.39C1186.8 1749 1189.62 1745.62 1193.57 1745.62H1222.92C1226.3 1745.62 1229.12 1747.87 1229.12 1751.26C1233.64 1781.16 1246.61 1795.83 1306.43 1795.83C1353.82 1795.83 1374.14 1785.11 1374.14 1759.72C1374.14 1745.05 1368.49 1734.33 1294.58 1727C1233.07 1720.79 1194.7 1707.25 1194.7 1658.16C1194.7 1612.45 1233.08 1585.36 1297.4 1585.36C1369.62 1585.36 1405.17 1610.2 1409.69 1664.36C1409.69 1666.06 1409.12 1667.75 1407.99 1669.44C1406.86 1670.57 1405.17 1671.7 1403.48 1671.7H1374.14C1371.31 1671.7 1368.49 1669.44 1367.93 1666.62C1361.16 1635.59 1343.67 1625.43 1297.4 1625.43C1245.49 1625.43 1239.28 1643.49 1239.28 1657.03C1239.28 1673.39 1246.61 1678.47 1316.58 1687.49C1385.99 1696.53 1418.72 1709.5 1418.72 1758.03C1418.15 1807.68 1377.52 1835.9 1305.86 1835.9Z" fill="#539E43"></path><path d="M537.905 997.41C537.905 987.255 532.261 977.657 523.234 972.579L283.988 834.902C280.033 832.642 275.522 831.514 271.011 830.948H268.751C264.24 830.948 259.724 832.642 255.774 834.902L16.5283 972.579C7.49632 977.657 1.85742 987.25 1.85742 997.41L2.42375 1367.56C2.42375 1372.64 5.24564 1377.72 9.75677 1379.98C14.2728 1382.8 19.9117 1382.8 23.8662 1379.98L166.059 1298.72C175.086 1293.65 180.73 1284.05 180.73 1273.9V1100.67C180.73 1090.51 186.369 1080.92 195.401 1075.84L255.774 1040.86C260.29 1038.03 265.367 1036.9 270.445 1036.9C275.522 1036.9 280.6 1038.03 284.554 1040.86L344.927 1075.84C353.959 1080.92 359.598 1090.51 359.598 1100.67V1273.9C359.598 1284.05 365.242 1293.65 374.269 1298.72L516.462 1379.98C520.978 1382.8 526.617 1382.8 531.133 1379.98C535.649 1377.72 538.471 1372.64 538.471 1367.56L537.905 997.41ZM1687.86 487.883C1683.35 485.622 1677.71 485.622 1673.76 487.883C1669.24 490.705 1666.42 495.216 1666.42 500.293V867.066C1666.42 870.449 1664.73 873.833 1661.34 876.093C1657.96 877.782 1654.57 877.782 1651.19 876.093L1591.38 841.674C1586.99 839.177 1582.03 837.864 1576.99 837.864C1571.94 837.864 1566.98 839.177 1562.6 841.674L1323.35 979.917C1314.33 984.995 1308.68 994.588 1308.68 1004.74V1280.66C1308.68 1290.82 1314.33 1300.42 1323.35 1305.49L1562.6 1443.74C1566.98 1446.23 1571.94 1447.55 1576.99 1447.55C1582.03 1447.55 1586.99 1446.23 1591.38 1443.74L1830.62 1305.49C1839.65 1300.42 1845.29 1290.82 1845.29 1280.66V592.835C1845.29 582.114 1839.65 572.525 1830.62 567.443L1687.87 487.883H1687.86ZM1665.86 1189.82C1665.86 1192.64 1664.73 1194.9 1662.47 1196.03L1580.66 1243.42C1579.51 1243.98 1578.26 1244.27 1576.99 1244.27C1575.72 1244.27 1574.46 1243.98 1573.32 1243.42L1491.5 1196.03C1489.24 1194.9 1488.12 1192.08 1488.12 1189.82V1095.02C1488.12 1092.2 1489.24 1089.95 1491.5 1088.82L1573.32 1041.42C1574.46 1040.86 1575.72 1040.57 1576.99 1040.57C1578.26 1040.57 1579.51 1040.86 1580.66 1041.42L1662.47 1088.82C1664.73 1089.94 1665.86 1092.77 1665.86 1095.02V1189.82ZM2484.03 1092.77C2493.07 1087.69 2498.14 1078.1 2498.14 1067.94V1000.79C2498.14 990.638 2492.5 981.045 2484.03 975.968L2246.48 838.291C2242.1 835.795 2237.14 834.482 2232.09 834.482C2227.05 834.482 2222.09 835.795 2217.71 838.291L1978.46 976.529C1969.43 981.606 1963.79 991.2 1963.79 1001.36V1277.28C1963.79 1287.44 1969.43 1297.03 1978.46 1302.11L2216.01 1437.53C2225.04 1442.6 2235.76 1442.6 2244.23 1437.53L2388.11 1357.41C2392.62 1355.15 2395.45 1350.07 2395.45 1345C2395.45 1339.92 2392.62 1334.84 2388.11 1332.58L2147.74 1194.34C2143.22 1191.52 2140.4 1187 2140.4 1181.93V1095.6C2140.4 1090.52 2143.22 1085.44 2147.74 1083.18L2222.78 1040.29C2224.98 1038.91 2227.52 1038.18 2230.12 1038.18C2232.71 1038.18 2235.26 1038.91 2237.45 1040.29L2312.5 1083.18C2317.01 1086 2319.84 1090.51 2319.84 1095.6V1163.31C2319.84 1168.38 2322.66 1173.46 2327.17 1175.72C2331.69 1178.54 2337.32 1178.54 2341.84 1175.72L2484.03 1092.77V1092.77Z" fill="#333333"></path><path d="M2228.43 1079.79C2229.26 1079.24 2230.24 1078.95 2231.25 1078.95C2232.25 1078.95 2233.23 1079.24 2234.07 1079.79L2279.77 1106.31C2281.47 1107.43 2282.59 1109.13 2282.59 1111.39V1164.43C2282.59 1166.68 2281.47 1168.38 2279.77 1169.51L2234.07 1196.03C2233.23 1196.58 2232.25 1196.87 2231.25 1196.87C2230.24 1196.87 2229.26 1196.58 2228.43 1196.03L2182.72 1169.51C2181.03 1168.38 2179.9 1166.68 2179.9 1164.43V1111.39C2179.9 1109.13 2181.03 1107.43 2182.72 1106.31L2228.43 1079.79V1079.79Z" fill="#539E43"></path><mask id="mask0_401_47" style="mask-type:alpha" maskUnits="userSpaceOnUse" x="657" y="835" width="533" height="607"><path d="M937.964 839.419C933.579 836.923 928.621 835.61 923.576 835.61C918.531 835.61 913.573 836.923 909.188 839.419L671.637 976.524C662.605 981.602 657.527 991.195 657.527 1001.35V1276.15C657.527 1286.3 663.171 1295.9 671.637 1300.97L909.188 1438.09C913.573 1440.59 918.531 1441.9 923.576 1441.9C928.621 1441.9 933.579 1440.59 937.964 1438.09L1175.52 1300.97C1184.55 1295.9 1189.63 1286.3 1189.63 1276.15V1001.36C1189.63 991.2 1183.98 981.607 1175.52 976.529L937.964 839.419Z" fill="white"></path></mask><g mask="url(#mask0_401_47)"><path d="M937.964 839.419C933.579 836.923 928.621 835.61 923.576 835.61C918.531 835.61 913.573 836.923 909.188 839.419L671.637 976.524C662.605 981.602 657.527 991.195 657.527 1001.35V1276.15C657.527 1286.3 663.171 1295.9 671.637 1300.97L909.188 1438.09C913.573 1440.59 918.531 1441.9 923.576 1441.9C928.621 1441.9 933.579 1440.59 937.964 1438.09L1175.52 1300.97C1184.55 1295.9 1189.63 1286.3 1189.63 1276.15V1001.36C1189.63 991.2 1183.98 981.607 1175.52 976.529L937.964 839.419Z" fill="url(#paint0_linear_401_47)"></path><path d="M1176.08 976.529L937.402 839.419C935.057 838.234 932.599 837.289 930.064 836.597L662.604 1294.78C664.82 1297.48 667.496 1299.78 670.509 1301.55L909.188 1438.67C915.96 1442.61 923.859 1443.74 931.192 1441.48L1182.29 982.178C1180.6 979.922 1178.34 978.223 1176.08 976.534V976.529Z" fill="url(#paint1_linear_401_47)"></path><path fill-rule="evenodd" clip-rule="evenodd" d="M1176.65 1300.98C1183.42 1297.03 1188.5 1290.26 1190.76 1282.92L928.932 836.03C922.16 834.902 914.822 835.464 908.622 839.413L671.632 975.968L927.238 1442.04C930.955 1441.43 934.566 1440.3 937.959 1438.66L1176.64 1300.98L1176.65 1300.98Z" fill="url(#paint2_linear_401_47)"></path><path fill-rule="evenodd" clip-rule="evenodd" d="M1176.65 1300.98L938.53 1438.09C935.168 1439.81 931.545 1440.95 927.809 1441.48L932.325 1449.94L1196.4 1297.03V1293.65L1189.62 1282.36C1188.5 1290.26 1183.42 1297.03 1176.65 1300.98V1300.98Z" fill="url(#paint3_linear_401_47)"></path><path fill-rule="evenodd" clip-rule="evenodd" d="M1176.65 1300.98L938.53 1438.09C935.168 1439.81 931.545 1440.95 927.809 1441.48L932.325 1449.94L1196.4 1297.03V1293.65L1189.62 1282.36C1188.5 1290.26 1183.42 1297.03 1176.65 1300.98V1300.98Z" fill="url(#paint4_linear_401_47)"></path></g><defs><linearGradient id="paint0_linear_401_47" x1="1020.36" y1="941.632" x2="759.978" y2="1350.76" gradientUnits="userSpaceOnUse"><stop stop-color="#41873F"></stop><stop offset="0.3288" stop-color="#418B3D"></stop><stop offset="0.6352" stop-color="#419637"></stop><stop offset="0.9319" stop-color="#3FA92D"></stop><stop offset="1" stop-color="#3FAE2A"></stop></linearGradient><linearGradient id="paint1_linear_401_47" x1="887.509" y1="1170.94" x2="1539.62" y2="816.649" gradientUnits="userSpaceOnUse"><stop offset="0.1376" stop-color="#41873F"></stop><stop offset="0.4032" stop-color="#54A044"></stop><stop offset="0.7136" stop-color="#66B848"></stop><stop offset="0.9081" stop-color="#6CC04A"></stop></linearGradient><linearGradient id="paint2_linear_401_47" x1="648.847" y1="1138.76" x2="1198.54" y2="1138.76" gradientUnits="userSpaceOnUse"><stop offset="0.09192" stop-color="#6CC04A"></stop><stop offset="0.2864" stop-color="#66B848"></stop><stop offset="0.5968" stop-color="#54A044"></stop><stop offset="0.8624" stop-color="#41873F"></stop></linearGradient><linearGradient id="paint3_linear_401_47" x1="648.851" y1="1366.61" x2="1198.54" y2="1366.61" gradientUnits="userSpaceOnUse"><stop offset="0.09192" stop-color="#6CC04A"></stop><stop offset="0.2864" stop-color="#66B848"></stop><stop offset="0.5968" stop-color="#54A044"></stop><stop offset="0.8624" stop-color="#41873F"></stop></linearGradient><linearGradient id="paint4_linear_401_47" x1="1278.62" y1="928.637" x2="1139.36" y2="1658.34" gradientUnits="userSpaceOnUse"><stop stop-color="#41873F"></stop><stop offset="0.3288" stop-color="#418B3D"></stop><stop offset="0.6352" stop-color="#419637"></stop><stop offset="0.9319" stop-color="#3FA92D"></stop><stop offset="1" stop-color="#3FAE2A"></stop></linearGradient></defs></svg>