<svg xmlns="http://www.w3.org/2000/svg" width="2500" height="2500" viewBox="0 0 2500 2500" fill="none"><path d="M1250 500.5C916.789 500.5 708.543 667.059 625.232 1000.15C750.198 833.587 895.976 771.151 1062.57 812.775C1157.63 836.524 1225.56 905.492 1300.78 981.802C1423.28 1106.11 1565.06 1249.98 1874.77 1249.98C2207.95 1249.98 2416.23 1083.43 2499.51 750.307C2374.57 916.866 2228.79 979.334 2062.17 937.71C1967.14 913.96 1899.21 844.993 1823.99 768.682C1701.49 644.372 1559.68 500.5 1250 500.5V500.5ZM625.232 1249.98C292.052 1249.98 83.7746 1416.54 0.495117 1749.66C125.43 1583.1 271.208 1520.63 437.83 1562.29C532.859 1586.07 600.795 1655.01 676.012 1731.29C798.51 1855.6 940.319 1999.5 1250 1999.5C1583.21 1999.5 1791.46 1832.94 1874.77 1499.82C1749.8 1666.38 1604.02 1728.85 1437.43 1687.19C1342.37 1663.48 1274.44 1594.48 1199.22 1518.2C1076.72 1393.89 934.944 1249.98 625.232 1249.98V1249.98Z" fill="#06B6D4"></path></svg>